<?xml version="1.0" encoding="UTF-8" standalone="no"?>
<!DOCTYPE svg PUBLIC "-//W3C//DTD SVG 1.1//EN"
 "http://www.w3.org/Graphics/SVG/1.1/DTD/svg11.dtd">
<!-- Generated by graphviz version 2.30.1 (20201013.1554)
 -->
<!-- Title: snakemake_dag Pages: 1 -->
<svg width="451pt" height="842pt"
 viewBox="0.00 0.00 451.00 842.00" xmlns="http://www.w3.org/2000/svg" xmlns:xlink="http://www.w3.org/1999/xlink">
<g id="graph0" class="graph" transform="scale(1 1) rotate(0) translate(4 838)">
<title>snakemake_dag</title>
<polygon fill="white" stroke="white" points="-4,5 -4,-838 448,-838 448,5 -4,5"/>
<!-- 0 -->
<g id="node1" class="node"><title>0</title>
<path fill="none" stroke="#d87556" stroke-width="2" d="M244,-36C244,-36 200,-36 200,-36 194,-36 188,-30 188,-24 188,-24 188,-12 188,-12 188,-6 194,-0 200,-0 200,-0 244,-0 244,-0 250,-0 256,-6 256,-12 256,-12 256,-24 256,-24 256,-30 250,-36 244,-36"/>
<text text-anchor="middle" x="222" y="-15.5" font-family="sans" font-size="10.00">watershed</text>
</g>
<!-- 1 -->
<g id="node2" class="node"><title>1</title>
<path fill="none" stroke="#56c1d8" stroke-width="2" stroke-dasharray="5,2" d="M265.25,-252C265.25,-252 178.75,-252 178.75,-252 172.75,-252 166.75,-246 166.75,-240 166.75,-240 166.75,-228 166.75,-228 166.75,-222 172.75,-216 178.75,-216 178.75,-216 265.25,-216 265.25,-216 271.25,-216 277.25,-222 277.25,-228 277.25,-228 277.25,-240 277.25,-240 277.25,-246 271.25,-252 265.25,-252"/>
<text text-anchor="middle" x="222" y="-231.5" font-family="sans" font-size="10.00">encode_categorical</text>
</g>
<!-- 13 -->
<g id="node14" class="node"><title>13</title>
<path fill="none" stroke="#ced856" stroke-width="2" stroke-dasharray="5,2" d="M263.25,-180C263.25,-180 180.75,-180 180.75,-180 174.75,-180 168.75,-174 168.75,-168 168.75,-168 168.75,-156 168.75,-156 168.75,-150 174.75,-144 180.75,-144 180.75,-144 263.25,-144 263.25,-144 269.25,-144 275.25,-150 275.25,-156 275.25,-156 275.25,-168 275.25,-168 275.25,-174 269.25,-180 263.25,-180"/>
<text text-anchor="middle" x="222" y="-159.5" font-family="sans" font-size="10.00">normalize_zscores</text>
</g>
<!-- 1&#45;&gt;13 -->
<g id="edge14" class="edge"><title>1&#45;&gt;13</title>
<path fill="none" stroke="grey" stroke-width="2" d="M222,-215.697C222,-207.983 222,-198.712 222,-190.112"/>
<polygon fill="grey" stroke="grey" points="225.5,-190.104 222,-180.104 218.5,-190.104 225.5,-190.104"/>
</g>
<!-- 2 -->
<g id="node3" class="node"><title>2</title>
<path fill="none" stroke="#88d856" stroke-width="2" stroke-dasharray="5,2" d="M264,-396C264,-396 180,-396 180,-396 174,-396 168,-390 168,-384 168,-384 168,-372 168,-372 168,-366 174,-360 180,-360 180,-360 264,-360 264,-360 270,-360 276,-366 276,-372 276,-372 276,-384 276,-384 276,-390 270,-396 264,-396"/>
<text text-anchor="middle" x="222" y="-375.5" font-family="sans" font-size="10.00">add_outlier_scores</text>
</g>
<!-- 12 -->
<g id="node13" class="node"><title>12</title>
<path fill="none" stroke="#569ad8" stroke-width="2" stroke-dasharray="5,2" d="M270,-324C270,-324 174,-324 174,-324 168,-324 162,-318 162,-312 162,-312 162,-300 162,-300 162,-294 168,-288 174,-288 174,-288 270,-288 270,-288 276,-288 282,-294 282,-300 282,-300 282,-312 282,-312 282,-318 276,-324 270,-324"/>
<text text-anchor="middle" x="222" y="-309" font-family="sans" font-size="10.00">label_pairs</text>
<text text-anchor="middle" x="222" y="-298" font-family="sans" font-size="10.00">prefix: TEST.eOutliers</text>
</g>
<!-- 2&#45;&gt;12 -->
<g id="edge13" class="edge"><title>2&#45;&gt;12</title>
<path fill="none" stroke="grey" stroke-width="2" d="M222,-359.697C222,-351.983 222,-342.712 222,-334.112"/>
<polygon fill="grey" stroke="grey" points="225.5,-334.104 222,-324.104 218.5,-334.104 225.5,-334.104"/>
</g>
<!-- 3 -->
<g id="node4" class="node"><title>3</title>
<path fill="none" stroke="#d89c56" stroke-width="2" stroke-dasharray="5,2" d="M195,-471C195,-471 153,-471 153,-471 147,-471 141,-465 141,-459 141,-459 141,-447 141,-447 141,-441 147,-435 153,-435 153,-435 195,-435 195,-435 201,-435 207,-441 207,-447 207,-447 207,-459 207,-459 207,-465 201,-471 195,-471"/>
<text text-anchor="middle" x="174" y="-450.5" font-family="sans" font-size="10.00">aggregate</text>
</g>
<!-- 3&#45;&gt;2 -->
<g id="edge3" class="edge"><title>3&#45;&gt;2</title>
<path fill="none" stroke="grey" stroke-width="2" d="M185.375,-434.7C191.293,-425.7 198.643,-414.522 205.202,-404.547"/>
<polygon fill="grey" stroke="grey" points="208.137,-406.454 210.706,-396.176 202.288,-402.608 208.137,-406.454"/>
</g>
<!-- 4 -->
<g id="node5" class="node"><title>4</title>
<path fill="none" stroke="#56d8a9" stroke-width="2" stroke-dasharray="5,2" d="M95,-546C95,-546 35,-546 35,-546 29,-546 23,-540 23,-534 23,-534 23,-522 23,-522 23,-516 29,-510 35,-510 35,-510 95,-510 95,-510 101,-510 107,-516 107,-522 107,-522 107,-534 107,-534 107,-540 101,-546 95,-546"/>
<text text-anchor="middle" x="65" y="-525.5" font-family="sans" font-size="10.00">split_samples</text>
</g>
<!-- 4&#45;&gt;3 -->
<g id="edge5" class="edge"><title>4&#45;&gt;3</title>
<path fill="none" stroke="grey" stroke-width="2" d="M90.5557,-509.885C105.315,-500 124.065,-487.443 140.051,-476.737"/>
<polygon fill="grey" stroke="grey" points="142.243,-479.481 148.604,-471.008 138.348,-473.665 142.243,-479.481"/>
</g>
<!-- 5 -->
<g id="node6" class="node"><title>5</title>
<path fill="none" stroke="#56d86b" stroke-width="2" stroke-dasharray="5,2" d="M114,-618C114,-618 16,-618 16,-618 10,-618 4,-612 4,-606 4,-606 4,-594 4,-594 4,-588 10,-582 16,-582 16,-582 114,-582 114,-582 120,-582 126,-588 126,-594 126,-594 126,-606 126,-606 126,-612 120,-618 114,-618"/>
<text text-anchor="middle" x="65" y="-597.5" font-family="sans" font-size="10.00">combine_annotations</text>
</g>
<!-- 5&#45;&gt;4 -->
<g id="edge7" class="edge"><title>5&#45;&gt;4</title>
<path fill="none" stroke="grey" stroke-width="2" d="M65,-581.697C65,-573.983 65,-564.712 65,-556.112"/>
<polygon fill="grey" stroke="grey" points="68.5001,-556.104 65,-546.104 61.5001,-556.104 68.5001,-556.104"/>
</g>
<!-- 6 -->
<g id="node7" class="node"><title>6</title>
<path fill="none" stroke="#afd856" stroke-width="2" stroke-dasharray="5,2" d="M42,-690C42,-690 12,-690 12,-690 6,-690 0,-684 0,-678 0,-678 0,-666 0,-666 0,-660 6,-654 12,-654 12,-654 42,-654 42,-654 48,-654 54,-660 54,-666 54,-666 54,-678 54,-678 54,-684 48,-690 42,-690"/>
<text text-anchor="middle" x="27" y="-669.5" font-family="sans" font-size="10.00">cadd</text>
</g>
<!-- 6&#45;&gt;5 -->
<g id="edge8" class="edge"><title>6&#45;&gt;5</title>
<path fill="none" stroke="grey" stroke-width="2" d="M36.3933,-653.697C40.7649,-645.644 46.0573,-635.894 50.8953,-626.982"/>
<polygon fill="grey" stroke="grey" points="54.0198,-628.563 55.7148,-618.104 47.8678,-625.223 54.0198,-628.563"/>
</g>
<!-- 7 -->
<g id="node8" class="node"><title>7</title>
<path fill="none" stroke="#68d856" stroke-width="2" stroke-dasharray="5,2" d="M92,-834C92,-834 42,-834 42,-834 36,-834 30,-828 30,-822 30,-822 30,-810 30,-810 30,-804 36,-798 42,-798 42,-798 92,-798 92,-798 98,-798 104,-804 104,-810 104,-810 104,-822 104,-822 104,-828 98,-834 92,-834"/>
<text text-anchor="middle" x="67" y="-819" font-family="sans" font-size="10.00">filter_rare</text>
<text text-anchor="middle" x="67" y="-808" font-family="sans" font-size="10.00">prefix: TEST</text>
</g>
<!-- 7&#45;&gt;6 -->
<g id="edge10" class="edge"><title>7&#45;&gt;6</title>
<path fill="none" stroke="grey" stroke-width="2" d="M62.1751,-797.871C55.3278,-773.564 42.7236,-728.819 34.6094,-700.013"/>
<polygon fill="grey" stroke="grey" points="37.9224,-698.866 31.842,-690.189 31.1846,-700.764 37.9224,-698.866"/>
</g>
<!-- 9 -->
<g id="node10" class="node"><title>9</title>
<path fill="none" stroke="#567bd8" stroke-width="2" stroke-dasharray="5,2" d="M112,-762C112,-762 82,-762 82,-762 76,-762 70,-756 70,-750 70,-750 70,-738 70,-738 70,-732 76,-726 82,-726 82,-726 112,-726 112,-726 118,-726 124,-732 124,-738 124,-738 124,-750 124,-750 124,-756 118,-762 112,-762"/>
<text text-anchor="middle" x="97" y="-741.5" font-family="sans" font-size="10.00">vep</text>
</g>
<!-- 7&#45;&gt;9 -->
<g id="edge12" class="edge"><title>7&#45;&gt;9</title>
<path fill="none" stroke="grey" stroke-width="2" d="M74.4157,-797.697C77.7944,-789.813 81.8696,-780.304 85.623,-771.546"/>
<polygon fill="grey" stroke="grey" points="88.9473,-772.675 89.6696,-762.104 82.5133,-769.917 88.9473,-772.675"/>
</g>
<!-- 8 -->
<g id="node9" class="node"><title>8</title>
<path fill="none" stroke="#56d88a" stroke-width="2" stroke-dasharray="5,2" d="M121.25,-690C121.25,-690 84.75,-690 84.75,-690 78.75,-690 72.75,-684 72.75,-678 72.75,-678 72.75,-666 72.75,-666 72.75,-660 78.75,-654 84.75,-654 84.75,-654 121.25,-654 121.25,-654 127.25,-654 133.25,-660 133.25,-666 133.25,-666 133.25,-678 133.25,-678 133.25,-684 127.25,-690 121.25,-690"/>
<text text-anchor="middle" x="103" y="-669.5" font-family="sans" font-size="10.00">split_vep</text>
</g>
<!-- 8&#45;&gt;5 -->
<g id="edge9" class="edge"><title>8&#45;&gt;5</title>
<path fill="none" stroke="grey" stroke-width="2" d="M93.6067,-653.697C89.2351,-645.644 83.9427,-635.894 79.1047,-626.982"/>
<polygon fill="grey" stroke="grey" points="82.1322,-625.223 74.2852,-618.104 75.9802,-628.563 82.1322,-625.223"/>
</g>
<!-- 9&#45;&gt;8 -->
<g id="edge11" class="edge"><title>9&#45;&gt;8</title>
<path fill="none" stroke="grey" stroke-width="2" d="M98.4831,-725.697C99.1443,-717.983 99.9389,-708.712 100.676,-700.112"/>
<polygon fill="grey" stroke="grey" points="104.167,-700.367 101.534,-690.104 97.1926,-699.769 104.167,-700.367"/>
</g>
<!-- 10 -->
<g id="node11" class="node"><title>10</title>
<path fill="none" stroke="#56d8d0" stroke-width="2" stroke-dasharray="5,2" d="M431,-546C431,-546 137,-546 137,-546 131,-546 125,-540 125,-534 125,-534 125,-522 125,-522 125,-516 131,-510 137,-510 137,-510 431,-510 431,-510 437,-510 443,-516 443,-522 443,-522 443,-534 443,-534 443,-540 437,-546 431,-546"/>
<text text-anchor="middle" x="284" y="-531" font-family="sans" font-size="10.00">gencode</text>
<text text-anchor="middle" x="284" y="-520" font-family="sans" font-size="10.00">prefix: data/gencode/gencode.v27.annotation.chr&#45;renamed.gtf</text>
</g>
<!-- 10&#45;&gt;3 -->
<g id="edge6" class="edge"><title>10&#45;&gt;3</title>
<path fill="none" stroke="grey" stroke-width="2" d="M258.21,-509.885C243.315,-500 224.393,-487.443 208.261,-476.737"/>
<polygon fill="grey" stroke="grey" points="209.896,-473.621 199.629,-471.008 206.025,-479.454 209.896,-473.621"/>
</g>
<!-- 11 -->
<g id="node12" class="node"><title>11</title>
<path fill="none" stroke="#d85656" stroke-width="2" stroke-dasharray="5,2" d="M305,-473.5C305,-473.5 237,-473.5 237,-473.5 231,-473.5 225,-467.5 225,-461.5 225,-461.5 225,-444.5 225,-444.5 225,-438.5 231,-432.5 237,-432.5 237,-432.5 305,-432.5 305,-432.5 311,-432.5 317,-438.5 317,-444.5 317,-444.5 317,-461.5 317,-461.5 317,-467.5 311,-473.5 305,-473.5"/>
<text text-anchor="middle" x="271" y="-461.5" font-family="sans" font-size="10.00">format_outliers</text>
<text text-anchor="middle" x="271" y="-450.5" font-family="sans" font-size="10.00">prefix: TEST</text>
<text text-anchor="middle" x="271" y="-439.5" font-family="sans" font-size="10.00">type: eOutliers</text>
</g>
<!-- 11&#45;&gt;2 -->
<g id="edge4" class="edge"><title>11&#45;&gt;2</title>
<path fill="none" stroke="grey" stroke-width="2" d="M257.869,-432.437C252.112,-423.86 245.278,-413.679 239.128,-404.517"/>
<polygon fill="grey" stroke="grey" points="241.977,-402.482 233.498,-396.13 236.165,-406.383 241.977,-402.482"/>
</g>
<!-- 12&#45;&gt;1 -->
<g id="edge2" class="edge"><title>12&#45;&gt;1</title>
<path fill="none" stroke="grey" stroke-width="2" d="M222,-287.697C222,-279.983 222,-270.712 222,-262.112"/>
<polygon fill="grey" stroke="grey" points="225.5,-262.104 222,-252.104 218.5,-262.104 225.5,-262.104"/>
</g>
<!-- 14 -->
<g id="node15" class="node"><title>14</title>
<path fill="none" stroke="#d8bc56" stroke-width="2" d="M257.25,-108C257.25,-108 186.75,-108 186.75,-108 180.75,-108 174.75,-102 174.75,-96 174.75,-96 174.75,-84 174.75,-84 174.75,-78 180.75,-72 186.75,-72 186.75,-72 257.25,-72 257.25,-72 263.25,-72 269.25,-78 269.25,-84 269.25,-84 269.25,-96 269.25,-96 269.25,-102 263.25,-108 257.25,-108"/>
<text text-anchor="middle" x="222" y="-87.5" font-family="sans" font-size="10.00">impute_missing</text>
</g>
<!-- 13&#45;&gt;14 -->
<g id="edge15" class="edge"><title>13&#45;&gt;14</title>
<path fill="none" stroke="grey" stroke-width="2" d="M222,-143.697C222,-135.983 222,-126.712 222,-118.112"/>
<polygon fill="grey" stroke="grey" points="225.5,-118.104 222,-108.104 218.5,-118.104 225.5,-118.104"/>
</g>
<!-- 14&#45;&gt;0 -->
<g id="edge1" class="edge"><title>14&#45;&gt;0</title>
<path fill="none" stroke="grey" stroke-width="2" d="M222,-71.6966C222,-63.9827 222,-54.7125 222,-46.1124"/>
<polygon fill="grey" stroke="grey" points="225.5,-46.1043 222,-36.1043 218.5,-46.1044 225.5,-46.1043"/>
</g>
</g>
</svg>
