<?xml version="1.0" encoding="UTF-8" standalone="no"?>
<!DOCTYPE svg PUBLIC "-//W3C//DTD SVG 1.1//EN"
 "http://www.w3.org/Graphics/SVG/1.1/DTD/svg11.dtd">
<!-- Generated by graphviz version 2.30.1 (20201013.1554)
 -->
<!-- Title: snakemake_dag Pages: 1 -->
<svg width="256pt" height="1052pt"
 viewBox="0.00 0.00 256.00 1052.00" xmlns="http://www.w3.org/2000/svg" xmlns:xlink="http://www.w3.org/1999/xlink">
<g id="graph0" class="graph" transform="scale(1 1) rotate(0) translate(4 1048)">
<title>snakemake_dag</title>
<polygon fill="white" stroke="white" points="-4,5 -4,-1048 253,-1048 253,5 -4,5"/>
<!-- 0 -->
<g id="node1" class="node"><title>0</title>
<path fill="none" stroke="#5692d8" stroke-width="2" d="M169,-36C169,-36 125,-36 125,-36 119,-36 113,-30 113,-24 113,-24 113,-12 113,-12 113,-6 119,-0 125,-0 125,-0 169,-0 169,-0 175,-0 181,-6 181,-12 181,-12 181,-24 181,-24 181,-30 175,-36 169,-36"/>
<text text-anchor="middle" x="147" y="-15.5" font-family="sans" font-size="10.00">watershed</text>
</g>
<!-- 1 -->
<g id="node2" class="node"><title>1</title>
<path fill="none" stroke="#d89556" stroke-width="2" d="M182.25,-108C182.25,-108 111.75,-108 111.75,-108 105.75,-108 99.75,-102 99.75,-96 99.75,-96 99.75,-84 99.75,-84 99.75,-78 105.75,-72 111.75,-72 111.75,-72 182.25,-72 182.25,-72 188.25,-72 194.25,-78 194.25,-84 194.25,-84 194.25,-96 194.25,-96 194.25,-102 188.25,-108 182.25,-108"/>
<text text-anchor="middle" x="147" y="-87.5" font-family="sans" font-size="10.00">impute_missing</text>
</g>
<!-- 1&#45;&gt;0 -->
<g id="edge1" class="edge"><title>1&#45;&gt;0</title>
<path fill="none" stroke="grey" stroke-width="2" d="M147,-71.6966C147,-63.9827 147,-54.7125 147,-46.1124"/>
<polygon fill="grey" stroke="grey" points="150.5,-46.1043 147,-36.1043 143.5,-46.1044 150.5,-46.1043"/>
</g>
<!-- 2 -->
<g id="node3" class="node"><title>2</title>
<path fill="none" stroke="#d87556" stroke-width="2" d="M188.25,-180C188.25,-180 105.75,-180 105.75,-180 99.75,-180 93.75,-174 93.75,-168 93.75,-168 93.75,-156 93.75,-156 93.75,-150 99.75,-144 105.75,-144 105.75,-144 188.25,-144 188.25,-144 194.25,-144 200.25,-150 200.25,-156 200.25,-156 200.25,-168 200.25,-168 200.25,-174 194.25,-180 188.25,-180"/>
<text text-anchor="middle" x="147" y="-159.5" font-family="sans" font-size="10.00">normalize_zscores</text>
</g>
<!-- 2&#45;&gt;1 -->
<g id="edge2" class="edge"><title>2&#45;&gt;1</title>
<path fill="none" stroke="grey" stroke-width="2" d="M147,-143.697C147,-135.983 147,-126.712 147,-118.112"/>
<polygon fill="grey" stroke="grey" points="150.5,-118.104 147,-108.104 143.5,-118.104 150.5,-118.104"/>
</g>
<!-- 3 -->
<g id="node4" class="node"><title>3</title>
<path fill="none" stroke="#56d0d8" stroke-width="2" d="M206.25,-324C206.25,-324 87.75,-324 87.75,-324 81.75,-324 75.75,-318 75.75,-312 75.75,-312 75.75,-300 75.75,-300 75.75,-294 81.75,-288 87.75,-288 87.75,-288 206.25,-288 206.25,-288 212.25,-288 218.25,-294 218.25,-300 218.25,-300 218.25,-312 218.25,-312 218.25,-318 212.25,-324 206.25,-324"/>
<text text-anchor="middle" x="147" y="-309" font-family="sans" font-size="10.00">label_pairs</text>
<text text-anchor="middle" x="147" y="-298" font-family="sans" font-size="10.00">prefix: 30x.GWD.eOutliers</text>
</g>
<!-- 17 -->
<g id="node18" class="node"><title>17</title>
<path fill="none" stroke="#d8d356" stroke-width="2" d="M190.25,-252C190.25,-252 103.75,-252 103.75,-252 97.75,-252 91.75,-246 91.75,-240 91.75,-240 91.75,-228 91.75,-228 91.75,-222 97.75,-216 103.75,-216 103.75,-216 190.25,-216 190.25,-216 196.25,-216 202.25,-222 202.25,-228 202.25,-228 202.25,-240 202.25,-240 202.25,-246 196.25,-252 190.25,-252"/>
<text text-anchor="middle" x="147" y="-231.5" font-family="sans" font-size="10.00">encode_categorical</text>
</g>
<!-- 3&#45;&gt;17 -->
<g id="edge18" class="edge"><title>3&#45;&gt;17</title>
<path fill="none" stroke="grey" stroke-width="2" d="M147,-287.697C147,-279.983 147,-270.712 147,-262.112"/>
<polygon fill="grey" stroke="grey" points="150.5,-262.104 147,-252.104 143.5,-262.104 150.5,-262.104"/>
</g>
<!-- 4 -->
<g id="node5" class="node"><title>4</title>
<path fill="none" stroke="#56b1d8" stroke-width="2" d="M189,-396C189,-396 105,-396 105,-396 99,-396 93,-390 93,-384 93,-384 93,-372 93,-372 93,-366 99,-360 105,-360 105,-360 189,-360 189,-360 195,-360 201,-366 201,-372 201,-372 201,-384 201,-384 201,-390 195,-396 189,-396"/>
<text text-anchor="middle" x="147" y="-381" font-family="sans" font-size="10.00">add_outlier_scores</text>
<text text-anchor="middle" x="147" y="-370" font-family="sans" font-size="10.00">type: eOutliers</text>
</g>
<!-- 4&#45;&gt;3 -->
<g id="edge4" class="edge"><title>4&#45;&gt;3</title>
<path fill="none" stroke="grey" stroke-width="2" d="M147,-359.697C147,-351.983 147,-342.712 147,-334.112"/>
<polygon fill="grey" stroke="grey" points="150.5,-334.104 147,-324.104 143.5,-334.104 150.5,-334.104"/>
</g>
<!-- 5 -->
<g id="node6" class="node"><title>5</title>
<path fill="none" stroke="#56d863" stroke-width="2" stroke-dasharray="5,2" d="M118,-468C118,-468 76,-468 76,-468 70,-468 64,-462 64,-456 64,-456 64,-444 64,-444 64,-438 70,-432 76,-432 76,-432 118,-432 118,-432 124,-432 130,-438 130,-444 130,-444 130,-456 130,-456 130,-462 124,-468 118,-468"/>
<text text-anchor="middle" x="97" y="-447.5" font-family="sans" font-size="10.00">aggregate</text>
</g>
<!-- 5&#45;&gt;4 -->
<g id="edge5" class="edge"><title>5&#45;&gt;4</title>
<path fill="none" stroke="grey" stroke-width="2" d="M109.36,-431.697C115.233,-423.474 122.369,-413.483 128.842,-404.421"/>
<polygon fill="grey" stroke="grey" points="131.818,-406.276 134.783,-396.104 126.122,-402.207 131.818,-406.276"/>
</g>
<!-- 6 -->
<g id="node7" class="node"><title>6</title>
<path fill="none" stroke="#9fd856" stroke-width="2" stroke-dasharray="5,2" d="M127,-540C127,-540 67,-540 67,-540 61,-540 55,-534 55,-528 55,-528 55,-516 55,-516 55,-510 61,-504 67,-504 67,-504 127,-504 127,-504 133,-504 139,-510 139,-516 139,-516 139,-528 139,-528 139,-534 133,-540 127,-540"/>
<text text-anchor="middle" x="97" y="-519.5" font-family="sans" font-size="10.00">split_samples</text>
</g>
<!-- 6&#45;&gt;5 -->
<g id="edge7" class="edge"><title>6&#45;&gt;5</title>
<path fill="none" stroke="grey" stroke-width="2" d="M97,-503.697C97,-495.983 97,-486.712 97,-478.112"/>
<polygon fill="grey" stroke="grey" points="100.5,-478.104 97,-468.104 93.5001,-478.104 100.5,-478.104"/>
</g>
<!-- 7 -->
<g id="node8" class="node"><title>7</title>
<path fill="none" stroke="#5673d8" stroke-width="2" stroke-dasharray="5,2" d="M146,-612C146,-612 48,-612 48,-612 42,-612 36,-606 36,-600 36,-600 36,-588 36,-588 36,-582 42,-576 48,-576 48,-576 146,-576 146,-576 152,-576 158,-582 158,-588 158,-588 158,-600 158,-600 158,-606 152,-612 146,-612"/>
<text text-anchor="middle" x="97" y="-591.5" font-family="sans" font-size="10.00">combine_annotations</text>
</g>
<!-- 7&#45;&gt;6 -->
<g id="edge8" class="edge"><title>7&#45;&gt;6</title>
<path fill="none" stroke="grey" stroke-width="2" d="M97,-575.697C97,-567.983 97,-558.712 97,-550.112"/>
<polygon fill="grey" stroke="grey" points="100.5,-550.104 97,-540.104 93.5001,-550.104 100.5,-550.104"/>
</g>
<!-- 8 -->
<g id="node9" class="node"><title>8</title>
<path fill="none" stroke="#bed856" stroke-width="2" stroke-dasharray="5,2" d="M74,-684C74,-684 44,-684 44,-684 38,-684 32,-678 32,-672 32,-672 32,-660 32,-660 32,-654 38,-648 44,-648 44,-648 74,-648 74,-648 80,-648 86,-654 86,-660 86,-660 86,-672 86,-672 86,-678 80,-684 74,-684"/>
<text text-anchor="middle" x="59" y="-663.5" font-family="sans" font-size="10.00">cadd</text>
</g>
<!-- 8&#45;&gt;7 -->
<g id="edge9" class="edge"><title>8&#45;&gt;7</title>
<path fill="none" stroke="grey" stroke-width="2" d="M68.3933,-647.697C72.7649,-639.644 78.0573,-629.894 82.8953,-620.982"/>
<polygon fill="grey" stroke="grey" points="86.0198,-622.563 87.7148,-612.104 79.8678,-619.223 86.0198,-622.563"/>
</g>
<!-- 9 -->
<g id="node10" class="node"><title>9</title>
<path fill="none" stroke="#d85656" stroke-width="2" stroke-dasharray="5,2" d="M119,-828C119,-828 79,-828 79,-828 73,-828 67,-822 67,-816 67,-816 67,-804 67,-804 67,-798 73,-792 79,-792 79,-792 119,-792 119,-792 125,-792 131,-798 131,-804 131,-804 131,-816 131,-816 131,-822 125,-828 119,-828"/>
<text text-anchor="middle" x="99" y="-807.5" font-family="sans" font-size="10.00">filter_rare</text>
</g>
<!-- 9&#45;&gt;8 -->
<g id="edge11" class="edge"><title>9&#45;&gt;8</title>
<path fill="none" stroke="grey" stroke-width="2" d="M94.1751,-791.871C87.3278,-767.564 74.7236,-722.819 66.6094,-694.013"/>
<polygon fill="grey" stroke="grey" points="69.9224,-692.866 63.842,-684.189 63.1846,-694.764 69.9224,-692.866"/>
</g>
<!-- 15 -->
<g id="node16" class="node"><title>15</title>
<path fill="none" stroke="#88d856" stroke-width="2" stroke-dasharray="5,2" d="M144,-756C144,-756 114,-756 114,-756 108,-756 102,-750 102,-744 102,-744 102,-732 102,-732 102,-726 108,-720 114,-720 114,-720 144,-720 144,-720 150,-720 156,-726 156,-732 156,-732 156,-744 156,-744 156,-750 150,-756 144,-756"/>
<text text-anchor="middle" x="129" y="-735.5" font-family="sans" font-size="10.00">vep</text>
</g>
<!-- 9&#45;&gt;15 -->
<g id="edge17" class="edge"><title>9&#45;&gt;15</title>
<path fill="none" stroke="grey" stroke-width="2" d="M106.416,-791.697C109.794,-783.813 113.87,-774.304 117.623,-765.546"/>
<polygon fill="grey" stroke="grey" points="120.947,-766.675 121.67,-756.104 114.513,-763.917 120.947,-766.675"/>
</g>
<!-- 10 -->
<g id="node11" class="node"><title>10</title>
<path fill="none" stroke="#68d856" stroke-width="2" stroke-dasharray="5,2" d="M134,-900C134,-900 64,-900 64,-900 58,-900 52,-894 52,-888 52,-888 52,-876 52,-876 52,-870 58,-864 64,-864 64,-864 134,-864 134,-864 140,-864 146,-870 146,-876 146,-876 146,-888 146,-888 146,-894 140,-900 134,-900"/>
<text text-anchor="middle" x="99" y="-879.5" font-family="sans" font-size="10.00">update_pop_afs</text>
</g>
<!-- 10&#45;&gt;9 -->
<g id="edge12" class="edge"><title>10&#45;&gt;9</title>
<path fill="none" stroke="grey" stroke-width="2" d="M99,-863.697C99,-855.983 99,-846.712 99,-838.112"/>
<polygon fill="grey" stroke="grey" points="102.5,-838.104 99,-828.104 95.5001,-838.104 102.5,-838.104"/>
</g>
<!-- 11 -->
<g id="node12" class="node"><title>11</title>
<path fill="none" stroke="#56d882" stroke-width="2" stroke-dasharray="5,2" d="M84,-972C84,-972 12,-972 12,-972 6,-972 0,-966 0,-960 0,-960 0,-948 0,-948 0,-942 6,-936 12,-936 12,-936 84,-936 84,-936 90,-936 96,-942 96,-948 96,-948 96,-960 96,-960 96,-966 90,-972 84,-972"/>
<text text-anchor="middle" x="48" y="-957" font-family="sans" font-size="10.00">filter</text>
<text text-anchor="middle" x="48" y="-946" font-family="sans" font-size="10.00">prefix: 30x.GWD</text>
</g>
<!-- 11&#45;&gt;10 -->
<g id="edge13" class="edge"><title>11&#45;&gt;10</title>
<path fill="none" stroke="grey" stroke-width="2" d="M60.6067,-935.697C66.5974,-927.474 73.8765,-917.483 80.4792,-908.421"/>
<polygon fill="grey" stroke="grey" points="83.4785,-910.248 86.5383,-900.104 77.8208,-906.126 83.4785,-910.248"/>
</g>
<!-- 12 -->
<g id="node13" class="node"><title>12</title>
<path fill="none" stroke="#56d8c1" stroke-width="2" stroke-dasharray="5,2" d="M173.25,-972C173.25,-972 126.75,-972 126.75,-972 120.75,-972 114.75,-966 114.75,-960 114.75,-960 114.75,-948 114.75,-948 114.75,-942 120.75,-936 126.75,-936 126.75,-936 173.25,-936 173.25,-936 179.25,-936 185.25,-942 185.25,-948 185.25,-948 185.25,-960 185.25,-960 185.25,-966 179.25,-972 173.25,-972"/>
<text text-anchor="middle" x="150" y="-951.5" font-family="sans" font-size="10.00">update_afs</text>
</g>
<!-- 12&#45;&gt;10 -->
<g id="edge14" class="edge"><title>12&#45;&gt;10</title>
<path fill="none" stroke="grey" stroke-width="2" d="M137.393,-935.697C131.403,-927.474 124.124,-917.483 117.521,-908.421"/>
<polygon fill="grey" stroke="grey" points="120.179,-906.126 111.462,-900.104 114.522,-910.248 120.179,-906.126"/>
</g>
<!-- 13 -->
<g id="node14" class="node"><title>13</title>
<path fill="none" stroke="#56d882" stroke-width="2" stroke-dasharray="5,2" d="M187,-1044C187,-1044 113,-1044 113,-1044 107,-1044 101,-1038 101,-1032 101,-1032 101,-1020 101,-1020 101,-1014 107,-1008 113,-1008 113,-1008 187,-1008 187,-1008 193,-1008 199,-1014 199,-1020 199,-1020 199,-1032 199,-1032 199,-1038 193,-1044 187,-1044"/>
<text text-anchor="middle" x="150" y="-1029" font-family="sans" font-size="10.00">filter</text>
<text text-anchor="middle" x="150" y="-1018" font-family="sans" font-size="10.00">prefix: 30x.AFGR</text>
</g>
<!-- 13&#45;&gt;12 -->
<g id="edge15" class="edge"><title>13&#45;&gt;12</title>
<path fill="none" stroke="grey" stroke-width="2" d="M150,-1007.7C150,-999.983 150,-990.712 150,-982.112"/>
<polygon fill="grey" stroke="grey" points="153.5,-982.104 150,-972.104 146.5,-982.104 153.5,-982.104"/>
</g>
<!-- 14 -->
<g id="node15" class="node"><title>14</title>
<path fill="none" stroke="#d8b456" stroke-width="2" stroke-dasharray="5,2" d="M153.25,-684C153.25,-684 116.75,-684 116.75,-684 110.75,-684 104.75,-678 104.75,-672 104.75,-672 104.75,-660 104.75,-660 104.75,-654 110.75,-648 116.75,-648 116.75,-648 153.25,-648 153.25,-648 159.25,-648 165.25,-654 165.25,-660 165.25,-660 165.25,-672 165.25,-672 165.25,-678 159.25,-684 153.25,-684"/>
<text text-anchor="middle" x="135" y="-663.5" font-family="sans" font-size="10.00">split_vep</text>
</g>
<!-- 14&#45;&gt;7 -->
<g id="edge10" class="edge"><title>14&#45;&gt;7</title>
<path fill="none" stroke="grey" stroke-width="2" d="M125.607,-647.697C121.235,-639.644 115.943,-629.894 111.105,-620.982"/>
<polygon fill="grey" stroke="grey" points="114.132,-619.223 106.285,-612.104 107.98,-622.563 114.132,-619.223"/>
</g>
<!-- 15&#45;&gt;14 -->
<g id="edge16" class="edge"><title>15&#45;&gt;14</title>
<path fill="none" stroke="grey" stroke-width="2" d="M130.483,-719.697C131.144,-711.983 131.939,-702.712 132.676,-694.112"/>
<polygon fill="grey" stroke="grey" points="136.167,-694.367 133.534,-684.104 129.193,-693.769 136.167,-694.367"/>
</g>
<!-- 16 -->
<g id="node17" class="node"><title>16</title>
<path fill="none" stroke="#56d8a2" stroke-width="2" stroke-dasharray="5,2" d="M235.25,-468C235.25,-468 160.75,-468 160.75,-468 154.75,-468 148.75,-462 148.75,-456 148.75,-456 148.75,-444 148.75,-444 148.75,-438 154.75,-432 160.75,-432 160.75,-432 235.25,-432 235.25,-432 241.25,-432 247.25,-438 247.25,-444 247.25,-444 247.25,-456 247.25,-456 247.25,-462 241.25,-468 235.25,-468"/>
<text text-anchor="middle" x="198" y="-453" font-family="sans" font-size="10.00">format_eOutliers</text>
<text text-anchor="middle" x="198" y="-442" font-family="sans" font-size="10.00">prefix: 30x.GWD</text>
</g>
<!-- 16&#45;&gt;4 -->
<g id="edge6" class="edge"><title>16&#45;&gt;4</title>
<path fill="none" stroke="grey" stroke-width="2" d="M185.393,-431.697C179.403,-423.474 172.124,-413.483 165.521,-404.421"/>
<polygon fill="grey" stroke="grey" points="168.179,-402.126 159.462,-396.104 162.522,-406.248 168.179,-402.126"/>
</g>
<!-- 17&#45;&gt;2 -->
<g id="edge3" class="edge"><title>17&#45;&gt;2</title>
<path fill="none" stroke="grey" stroke-width="2" d="M147,-215.697C147,-207.983 147,-198.712 147,-190.112"/>
<polygon fill="grey" stroke="grey" points="150.5,-190.104 147,-180.104 143.5,-190.104 150.5,-190.104"/>
</g>
</g>
</svg>
