<?xml version="1.0" encoding="UTF-8" standalone="no"?>
<!DOCTYPE svg PUBLIC "-//W3C//DTD SVG 1.1//EN"
 "http://www.w3.org/Graphics/SVG/1.1/DTD/svg11.dtd">
<!-- Generated by graphviz version 2.30.1 (20201013.1554)
 -->
<!-- Title: snakemake_dag Pages: 1 -->
<svg width="366pt" height="842pt"
 viewBox="0.00 0.00 366.00 842.00" xmlns="http://www.w3.org/2000/svg" xmlns:xlink="http://www.w3.org/1999/xlink">
<g id="graph0" class="graph" transform="scale(1 1) rotate(0) translate(4 838)">
<title>snakemake_dag</title>
<polygon fill="white" stroke="white" points="-4,5 -4,-838 363,-838 363,5 -4,5"/>
<!-- 0 -->
<g id="node1" class="node"><title>0</title>
<path fill="none" stroke="#d85656" stroke-width="2" d="M223,-36C223,-36 179,-36 179,-36 173,-36 167,-30 167,-24 167,-24 167,-12 167,-12 167,-6 173,-0 179,-0 179,-0 223,-0 223,-0 229,-0 235,-6 235,-12 235,-12 235,-24 235,-24 235,-30 229,-36 223,-36"/>
<text text-anchor="middle" x="201" y="-15.5" font-family="sans" font-size="10.00">watershed</text>
</g>
<!-- 1 -->
<g id="node2" class="node"><title>1</title>
<path fill="none" stroke="#68d856" stroke-width="2" d="M243,-396C243,-396 159,-396 159,-396 153,-396 147,-390 147,-384 147,-384 147,-372 147,-372 147,-366 153,-360 159,-360 159,-360 243,-360 243,-360 249,-360 255,-366 255,-372 255,-372 255,-384 255,-384 255,-390 249,-396 243,-396"/>
<text text-anchor="middle" x="201" y="-375.5" font-family="sans" font-size="10.00">add_outlier_scores</text>
</g>
<!-- 11 -->
<g id="node12" class="node"><title>11</title>
<path fill="none" stroke="#56d8a9" stroke-width="2" d="M249,-324C249,-324 153,-324 153,-324 147,-324 141,-318 141,-312 141,-312 141,-300 141,-300 141,-294 147,-288 153,-288 153,-288 249,-288 249,-288 255,-288 261,-294 261,-300 261,-300 261,-312 261,-312 261,-318 255,-324 249,-324"/>
<text text-anchor="middle" x="201" y="-309" font-family="sans" font-size="10.00">label_pairs</text>
<text text-anchor="middle" x="201" y="-298" font-family="sans" font-size="10.00">prefix: TEST.eOutliers</text>
</g>
<!-- 1&#45;&gt;11 -->
<g id="edge12" class="edge"><title>1&#45;&gt;11</title>
<path fill="none" stroke="grey" stroke-width="2" d="M201,-359.697C201,-351.983 201,-342.712 201,-334.112"/>
<polygon fill="grey" stroke="grey" points="204.5,-334.104 201,-324.104 197.5,-334.104 204.5,-334.104"/>
</g>
<!-- 2 -->
<g id="node3" class="node"><title>2</title>
<path fill="none" stroke="#d8bc56" stroke-width="2" d="M174,-471C174,-471 132,-471 132,-471 126,-471 120,-465 120,-459 120,-459 120,-447 120,-447 120,-441 126,-435 132,-435 132,-435 174,-435 174,-435 180,-435 186,-441 186,-447 186,-447 186,-459 186,-459 186,-465 180,-471 174,-471"/>
<text text-anchor="middle" x="153" y="-450.5" font-family="sans" font-size="10.00">aggregate</text>
</g>
<!-- 2&#45;&gt;1 -->
<g id="edge2" class="edge"><title>2&#45;&gt;1</title>
<path fill="none" stroke="grey" stroke-width="2" d="M164.375,-434.7C170.293,-425.7 177.643,-414.522 184.202,-404.547"/>
<polygon fill="grey" stroke="grey" points="187.137,-406.454 189.706,-396.176 181.288,-402.608 187.137,-406.454"/>
</g>
<!-- 3 -->
<g id="node4" class="node"><title>3</title>
<path fill="none" stroke="#afd856" stroke-width="2" stroke-dasharray="5,2" d="M95,-546C95,-546 35,-546 35,-546 29,-546 23,-540 23,-534 23,-534 23,-522 23,-522 23,-516 29,-510 35,-510 35,-510 95,-510 95,-510 101,-510 107,-516 107,-522 107,-522 107,-534 107,-534 107,-540 101,-546 95,-546"/>
<text text-anchor="middle" x="65" y="-525.5" font-family="sans" font-size="10.00">split_samples</text>
</g>
<!-- 3&#45;&gt;2 -->
<g id="edge4" class="edge"><title>3&#45;&gt;2</title>
<path fill="none" stroke="grey" stroke-width="2" d="M85.8548,-509.7C97.362,-500.154 111.822,-488.159 124.373,-477.747"/>
<polygon fill="grey" stroke="grey" points="126.833,-480.254 132.295,-471.176 122.364,-474.867 126.833,-480.254"/>
</g>
<!-- 4 -->
<g id="node5" class="node"><title>4</title>
<path fill="none" stroke="#567bd8" stroke-width="2" stroke-dasharray="5,2" d="M114,-618C114,-618 16,-618 16,-618 10,-618 4,-612 4,-606 4,-606 4,-594 4,-594 4,-588 10,-582 16,-582 16,-582 114,-582 114,-582 120,-582 126,-588 126,-594 126,-594 126,-606 126,-606 126,-612 120,-618 114,-618"/>
<text text-anchor="middle" x="65" y="-597.5" font-family="sans" font-size="10.00">combine_annotations</text>
</g>
<!-- 4&#45;&gt;3 -->
<g id="edge6" class="edge"><title>4&#45;&gt;3</title>
<path fill="none" stroke="grey" stroke-width="2" d="M65,-581.697C65,-573.983 65,-564.712 65,-556.112"/>
<polygon fill="grey" stroke="grey" points="68.5001,-556.104 65,-546.104 61.5001,-556.104 68.5001,-556.104"/>
</g>
<!-- 5 -->
<g id="node6" class="node"><title>5</title>
<path fill="none" stroke="#56d8d0" stroke-width="2" stroke-dasharray="5,2" d="M42,-690C42,-690 12,-690 12,-690 6,-690 0,-684 0,-678 0,-678 0,-666 0,-666 0,-660 6,-654 12,-654 12,-654 42,-654 42,-654 48,-654 54,-660 54,-666 54,-666 54,-678 54,-678 54,-684 48,-690 42,-690"/>
<text text-anchor="middle" x="27" y="-669.5" font-family="sans" font-size="10.00">cadd</text>
</g>
<!-- 5&#45;&gt;4 -->
<g id="edge7" class="edge"><title>5&#45;&gt;4</title>
<path fill="none" stroke="grey" stroke-width="2" d="M36.3933,-653.697C40.7649,-645.644 46.0573,-635.894 50.8953,-626.982"/>
<polygon fill="grey" stroke="grey" points="54.0198,-628.563 55.7148,-618.104 47.8678,-625.223 54.0198,-628.563"/>
</g>
<!-- 6 -->
<g id="node7" class="node"><title>6</title>
<path fill="none" stroke="#569ad8" stroke-width="2" stroke-dasharray="5,2" d="M92,-834C92,-834 42,-834 42,-834 36,-834 30,-828 30,-822 30,-822 30,-810 30,-810 30,-804 36,-798 42,-798 42,-798 92,-798 92,-798 98,-798 104,-804 104,-810 104,-810 104,-822 104,-822 104,-828 98,-834 92,-834"/>
<text text-anchor="middle" x="67" y="-819" font-family="sans" font-size="10.00">filter_rare</text>
<text text-anchor="middle" x="67" y="-808" font-family="sans" font-size="10.00">prefix: TEST</text>
</g>
<!-- 6&#45;&gt;5 -->
<g id="edge9" class="edge"><title>6&#45;&gt;5</title>
<path fill="none" stroke="grey" stroke-width="2" d="M62.1751,-797.871C55.3278,-773.564 42.7236,-728.819 34.6094,-700.013"/>
<polygon fill="grey" stroke="grey" points="37.9224,-698.866 31.842,-690.189 31.1846,-700.764 37.9224,-698.866"/>
</g>
<!-- 8 -->
<g id="node9" class="node"><title>8</title>
<path fill="none" stroke="#56d86b" stroke-width="2" stroke-dasharray="5,2" d="M112,-762C112,-762 82,-762 82,-762 76,-762 70,-756 70,-750 70,-750 70,-738 70,-738 70,-732 76,-726 82,-726 82,-726 112,-726 112,-726 118,-726 124,-732 124,-738 124,-738 124,-750 124,-750 124,-756 118,-762 112,-762"/>
<text text-anchor="middle" x="97" y="-741.5" font-family="sans" font-size="10.00">vep</text>
</g>
<!-- 6&#45;&gt;8 -->
<g id="edge11" class="edge"><title>6&#45;&gt;8</title>
<path fill="none" stroke="grey" stroke-width="2" d="M74.4157,-797.697C77.7944,-789.813 81.8696,-780.304 85.623,-771.546"/>
<polygon fill="grey" stroke="grey" points="88.9473,-772.675 89.6696,-762.104 82.5133,-769.917 88.9473,-772.675"/>
</g>
<!-- 7 -->
<g id="node8" class="node"><title>7</title>
<path fill="none" stroke="#d87556" stroke-width="2" stroke-dasharray="5,2" d="M121.25,-690C121.25,-690 84.75,-690 84.75,-690 78.75,-690 72.75,-684 72.75,-678 72.75,-678 72.75,-666 72.75,-666 72.75,-660 78.75,-654 84.75,-654 84.75,-654 121.25,-654 121.25,-654 127.25,-654 133.25,-660 133.25,-666 133.25,-666 133.25,-678 133.25,-678 133.25,-684 127.25,-690 121.25,-690"/>
<text text-anchor="middle" x="103" y="-669.5" font-family="sans" font-size="10.00">split_vep</text>
</g>
<!-- 7&#45;&gt;4 -->
<g id="edge8" class="edge"><title>7&#45;&gt;4</title>
<path fill="none" stroke="grey" stroke-width="2" d="M93.6067,-653.697C89.2351,-645.644 83.9427,-635.894 79.1047,-626.982"/>
<polygon fill="grey" stroke="grey" points="82.1322,-625.223 74.2852,-618.104 75.9802,-628.563 82.1322,-625.223"/>
</g>
<!-- 8&#45;&gt;7 -->
<g id="edge10" class="edge"><title>8&#45;&gt;7</title>
<path fill="none" stroke="grey" stroke-width="2" d="M98.4831,-725.697C99.1443,-717.983 99.9389,-708.712 100.676,-700.112"/>
<polygon fill="grey" stroke="grey" points="104.167,-700.367 101.534,-690.104 97.1926,-699.769 104.167,-700.367"/>
</g>
<!-- 9 -->
<g id="node10" class="node"><title>9</title>
<path fill="none" stroke="#56d88a" stroke-width="2" d="M346.25,-546C346.25,-546 137.75,-546 137.75,-546 131.75,-546 125.75,-540 125.75,-534 125.75,-534 125.75,-522 125.75,-522 125.75,-516 131.75,-510 137.75,-510 137.75,-510 346.25,-510 346.25,-510 352.25,-510 358.25,-516 358.25,-522 358.25,-522 358.25,-534 358.25,-534 358.25,-540 352.25,-546 346.25,-546"/>
<text text-anchor="middle" x="242" y="-531" font-family="sans" font-size="10.00">gencode</text>
<text text-anchor="middle" x="242" y="-520" font-family="sans" font-size="10.00">prefix: gencode.v27.annotation.chr&#45;renamed</text>
</g>
<!-- 9&#45;&gt;2 -->
<g id="edge5" class="edge"><title>9&#45;&gt;2</title>
<path fill="none" stroke="grey" stroke-width="2" d="M220.908,-509.7C209.27,-500.154 194.646,-488.159 181.952,-477.747"/>
<polygon fill="grey" stroke="grey" points="183.892,-474.812 173.94,-471.176 179.453,-480.224 183.892,-474.812"/>
</g>
<!-- 10 -->
<g id="node11" class="node"><title>10</title>
<path fill="none" stroke="#88d856" stroke-width="2" stroke-dasharray="5,2" d="M284,-473.5C284,-473.5 216,-473.5 216,-473.5 210,-473.5 204,-467.5 204,-461.5 204,-461.5 204,-444.5 204,-444.5 204,-438.5 210,-432.5 216,-432.5 216,-432.5 284,-432.5 284,-432.5 290,-432.5 296,-438.5 296,-444.5 296,-444.5 296,-461.5 296,-461.5 296,-467.5 290,-473.5 284,-473.5"/>
<text text-anchor="middle" x="250" y="-461.5" font-family="sans" font-size="10.00">format_outliers</text>
<text text-anchor="middle" x="250" y="-450.5" font-family="sans" font-size="10.00">prefix: TEST</text>
<text text-anchor="middle" x="250" y="-439.5" font-family="sans" font-size="10.00">type: eOutliers</text>
</g>
<!-- 10&#45;&gt;1 -->
<g id="edge3" class="edge"><title>10&#45;&gt;1</title>
<path fill="none" stroke="grey" stroke-width="2" d="M236.869,-432.437C231.112,-423.86 224.278,-413.679 218.128,-404.517"/>
<polygon fill="grey" stroke="grey" points="220.977,-402.482 212.498,-396.13 215.165,-406.383 220.977,-402.482"/>
</g>
<!-- 12 -->
<g id="node13" class="node"><title>12</title>
<path fill="none" stroke="#56c1d8" stroke-width="2" d="M244.25,-252C244.25,-252 157.75,-252 157.75,-252 151.75,-252 145.75,-246 145.75,-240 145.75,-240 145.75,-228 145.75,-228 145.75,-222 151.75,-216 157.75,-216 157.75,-216 244.25,-216 244.25,-216 250.25,-216 256.25,-222 256.25,-228 256.25,-228 256.25,-240 256.25,-240 256.25,-246 250.25,-252 244.25,-252"/>
<text text-anchor="middle" x="201" y="-231.5" font-family="sans" font-size="10.00">encode_categorical</text>
</g>
<!-- 11&#45;&gt;12 -->
<g id="edge13" class="edge"><title>11&#45;&gt;12</title>
<path fill="none" stroke="grey" stroke-width="2" d="M201,-287.697C201,-279.983 201,-270.712 201,-262.112"/>
<polygon fill="grey" stroke="grey" points="204.5,-262.104 201,-252.104 197.5,-262.104 204.5,-262.104"/>
</g>
<!-- 13 -->
<g id="node14" class="node"><title>13</title>
<path fill="none" stroke="#d89c56" stroke-width="2" d="M242.25,-180C242.25,-180 159.75,-180 159.75,-180 153.75,-180 147.75,-174 147.75,-168 147.75,-168 147.75,-156 147.75,-156 147.75,-150 153.75,-144 159.75,-144 159.75,-144 242.25,-144 242.25,-144 248.25,-144 254.25,-150 254.25,-156 254.25,-156 254.25,-168 254.25,-168 254.25,-174 248.25,-180 242.25,-180"/>
<text text-anchor="middle" x="201" y="-159.5" font-family="sans" font-size="10.00">normalize_zscores</text>
</g>
<!-- 12&#45;&gt;13 -->
<g id="edge14" class="edge"><title>12&#45;&gt;13</title>
<path fill="none" stroke="grey" stroke-width="2" d="M201,-215.697C201,-207.983 201,-198.712 201,-190.112"/>
<polygon fill="grey" stroke="grey" points="204.5,-190.104 201,-180.104 197.5,-190.104 204.5,-190.104"/>
</g>
<!-- 14 -->
<g id="node15" class="node"><title>14</title>
<path fill="none" stroke="#ced856" stroke-width="2" d="M236.25,-108C236.25,-108 165.75,-108 165.75,-108 159.75,-108 153.75,-102 153.75,-96 153.75,-96 153.75,-84 153.75,-84 153.75,-78 159.75,-72 165.75,-72 165.75,-72 236.25,-72 236.25,-72 242.25,-72 248.25,-78 248.25,-84 248.25,-84 248.25,-96 248.25,-96 248.25,-102 242.25,-108 236.25,-108"/>
<text text-anchor="middle" x="201" y="-87.5" font-family="sans" font-size="10.00">impute_missing</text>
</g>
<!-- 13&#45;&gt;14 -->
<g id="edge15" class="edge"><title>13&#45;&gt;14</title>
<path fill="none" stroke="grey" stroke-width="2" d="M201,-143.697C201,-135.983 201,-126.712 201,-118.112"/>
<polygon fill="grey" stroke="grey" points="204.5,-118.104 201,-108.104 197.5,-118.104 204.5,-118.104"/>
</g>
<!-- 14&#45;&gt;0 -->
<g id="edge1" class="edge"><title>14&#45;&gt;0</title>
<path fill="none" stroke="grey" stroke-width="2" d="M201,-71.6966C201,-63.9827 201,-54.7125 201,-46.1124"/>
<polygon fill="grey" stroke="grey" points="204.5,-46.1043 201,-36.1043 197.5,-46.1044 204.5,-46.1043"/>
</g>
</g>
</svg>
